# xmcd
#
# Track frame offsets:
#  150
#  10599
#  19788
#  30343
#  42457
#  53697
#  63735
#  74086
#  86251
#  96053
#  105624
#  114729
#  123221
#  134420
#  146105
#  156027
#  166974
#  177207
#  185985
#  198567
#  207409
#  217368
#  229737
#  238593
#  250637
#  260363
#  271919
#  282078
#  291518
#  303603
#  316035
#  327036
#
# Disc length: 4520 seconds
#
# Revision: 0
# Processed by: cddbd v1.5.2PL0 Copyright (c) Steve Scherf et al.
# Submitted via: AltoMP3_Maker 3.0
#
DISCID=dc11a620
DTITLE=Various Artist - Mercury Hillbilly, Vol. 2
DYEAR=1900
DGENRE=
TTITLE0=Billy Carlisle - Rattlesnake Daddy
TTITLE1=Eddie Hill - Cold Cold Woman
TTITLE2=Louie Innis - Stomp That Thing
TTITLE3=Tibby Edwards - You Made a Believer out of Me
TTITLE4=Betty Amos - Yes Mam' Mama
TTITLE5=Joey Gills - My Name Is Joe
TTITLE6=Curtis Gordon - Play the Music Louder
TTITLE7=Bill Nettles - Push and Pull Boogie
TTITLE8=Joe Carson - I Could Love the Devil out of You
TTITLE9=Clyde Beavers - Crying for My Baby
TTITLE10=Allen Flatt - Chills and Fever
TTITLE11=Jimmie Skinner - One Dead Man Ago
TTITLE12=Jimmie Fletcher - I'm Changin' Business
TTITLE13=Dude Martin - Tennessee Wedding
TTITLE14=Benny Martin - (I Can) Read between the Lines
TTITLE15=Chuck Reed - Cry Like a Baby
TTITLE16=Johnny Horton - Tennessee Jive
TTITLE17=Paul and Roy - The Way You Lied to Me
TTITLE18=Leon Payne - Lumberjack
TTITLE19=Roger Miller - Poor Little John
TTITLE20=Jimmy Dean - Freight Train Blues
TTITLE21=George Jones - Take the Devil out of Me
TTITLE22=George and Earl - Cry Baby Cry
TTITLE23=Red Kirk - Knock out the Lights and Call the Law
TTITLE24=Betty Amos - Gotta Have Some Lovin'
TTITLE25=Ken Marvin - I've Got My Love
TTITLE26=Joe Carson - Show Me Now
TTITLE27=Jerry Byrd - Texas Play Boy Rag
TTITLE28=Tibby Edwards - Flip Flop and Fly
TTITLE29=Benny Barnes - No Fault of Mine
TTITLE30=Tiny Hill - Diesel Smoke Dangerous Curves
TTITLE31=Art Gibson - I'm a Truck Driving Man
EXTD=
EXTT0=
EXTT1=
EXTT2=
EXTT3=
EXTT4=
EXTT5=
EXTT6=
EXTT7=
EXTT8=
EXTT9=
EXTT10=
EXTT11=
EXTT12=
EXTT13=
EXTT14=
EXTT15=
EXTT16=
EXTT17=
EXTT18=
EXTT19=
EXTT20=
EXTT21=
EXTT22=
EXTT23=
EXTT24=
EXTT25=
EXTT26=
EXTT27=
EXTT28=
EXTT29=
EXTT30=
EXTT31=
PLAYORDER=
